<svg xmlns="http://www.w3.org/2000/svg" viewBox="0 0 64 64">
  <defs>
    <linearGradient id="steel" x1=".2" y1="1" x2=".8" y2="0">
      <stop stop-color="#68bfff"/>
      <stop offset=".48" stop-color="#f4ffff"/>
      <stop offset="1" stop-color="#8bdbff"/>
    </linearGradient>
    <linearGradient id="gold" x1="0" y1="1" x2="1" y2="0">
      <stop stop-color="#815027"/>
      <stop offset=".5" stop-color="#ffe094"/>
      <stop offset="1" stop-color="#a86932"/>
    </linearGradient>
    <filter id="glow" x="-40%" y="-40%" width="180%" height="180%">
      <feGaussianBlur stdDeviation="2.5" result="blur"/>
      <feMerge><feMergeNode in="blur"/><feMergeNode in="SourceGraphic"/></feMerge>
    </filter>
  </defs>
  <path d="M15 8h10L14 39l11-5-4 13-12 5 4-12-9 4z" fill="#2f89ff" opacity=".55"/>
  <path d="M24 7 16 36l9-4-4 14 17-25-11 5 7-19z" fill="url(#steel)" stroke="#e6fbff" stroke-width="1.5" stroke-linejoin="round" filter="url(#glow)"/>
  <path d="m34 46-2 5m9-5 2 5M20 52l-4 3m31-4 4 3" fill="none" stroke="#8feaff" stroke-width="2" stroke-linecap="round"/>
  <path d="M12 55c9-5 31-5 40 0" fill="none" stroke="url(#gold)" stroke-width="3" stroke-linecap="round"/>
  <path d="m8 57 5-1m38 1-5-1" stroke="#ffe7a6" stroke-width="2" stroke-linecap="round"/>
</svg>
